<?xml version="1.0" standalone="no"?>
<!DOCTYPE svg PUBLIC "-//W3C//DTD SVG 20010904//EN"
 "http://www.w3.org/TR/2001/REC-SVG-20010904/DTD/svg10.dtd">
<svg version="1.0" xmlns="http://www.w3.org/2000/svg"
 width="920.000000pt" height="920.000000pt" viewBox="0 0 920.000000 920.000000"
 preserveAspectRatio="xMidYMid meet">

<g transform="translate(0.000000,920.000000) scale(0.100000,-0.100000)"
fill="#000000" stroke="none">
<path d="M6152 6542 c-20 -6 4 -37 50 -65 50 -30 158 -131 210 -197 66 -84
169 -252 223 -364 47 -98 76 -182 115 -335 9 -35 29 -61 98 -130 48 -48 113
-109 145 -136 32 -28 75 -73 97 -101 21 -28 44 -57 52 -65 60 -62 241 -342
291 -449 21 -47 49 -109 63 -137 30 -67 37 -103 19 -103 -12 0 -95 -122 -95
-141 0 -13 5 -12 59 16 29 14 51 33 54 46 17 66 65 -61 70 -185 l2 -69 -35 -4
c-39 -5 -61 -20 -39 -27 8 -2 28 -9 44 -14 l30 -9 -2 -77 c-3 -141 -91 -349
-191 -456 -34 -36 -62 -68 -62 -71 0 -16 -333 -259 -354 -259 -2 0 -46 -29
-97 -64 -92 -62 -229 -137 -279 -151 -14 -4 -52 -19 -85 -32 -102 -43 -308
-114 -355 -122 -25 -5 -83 -18 -130 -30 -47 -11 -105 -26 -130 -32 -50 -11
-244 -30 -330 -32 -137 -2 -401 6 -460 14 -36 5 -117 15 -180 23 -272 34 -514
160 -710 370 -143 153 -253 446 -300 803 -18 128 -8 571 15 671 9 41 15 86 13
100 -2 22 -10 11 -43 -60 -22 -48 -45 -88 -51 -88 -17 0 -39 29 -87 120 -88
164 -130 294 -167 510 -33 190 -16 341 39 353 23 4 188 -22 241 -38 130 -41
393 -69 429 -46 10 6 24 5 41 -4 24 -12 28 -22 34 -81 9 -90 68 -269 123 -376
77 -150 229 -320 403 -452 136 -104 216 -152 309 -186 42 -15 123 -46 181 -68
109 -41 274 -77 420 -90 167 -15 430 36 605 116 218 100 328 219 359 389 21
115 20 147 -5 251 -36 146 -124 322 -207 415 -21 23 -65 76 -97 117 -141 176
-335 352 -500 453 -106 65 -102 60 -77 109 30 62 92 211 92 223 0 27 55 123
85 152 39 36 41 41 22 68 -10 13 -21 16 -40 11 -43 -10 -96 -145 -181 -455 -7
-25 -17 -46 -23 -48 -6 -2 -26 9 -45 25 -97 86 -288 179 -558 275 -248 87
-327 100 -600 100 -175 -1 -236 -5 -329 -22 -63 -11 -128 -21 -144 -21 -38 0
-235 -61 -366 -113 -133 -53 -366 -199 -470 -295 l-80 -72 -98 6 c-258 16
-407 -59 -502 -253 -59 -118 -73 -224 -47 -361 21 -116 41 -178 72 -219 28
-37 29 -68 6 -138 -19 -57 -3 -53 -192 -43 -52 2 -108 1 -125 -3 -18 -5 -55
-35 -94 -78 -52 -58 -79 -78 -155 -115 -78 -38 -106 -59 -190 -144 -102 -102
-110 -114 -183 -267 l-43 -90 -62 0 c-35 0 -77 -6 -95 -13 -82 -35 -84 -180
-5 -273 l35 -40 -31 -92 c-67 -199 -83 -278 -81 -402 1 -100 -1 -119 -17 -136
-26 -29 -32 -137 -10 -172 9 -13 51 -42 93 -63 64 -33 87 -39 142 -40 55 -1
80 -8 151 -41 106 -51 209 -85 375 -128 161 -41 259 -55 378 -54 113 1 134 7
154 40 16 25 15 29 -16 80 -41 68 -110 139 -133 139 -21 0 -24 -28 -4 -36 19
-7 136 -149 136 -164 0 -9 -20 -10 -72 -5 -157 15 -262 31 -265 40 -2 6 15 21
37 35 40 25 74 78 85 133 4 18 11 27 19 24 36 -14 56 28 150 313 l94 285 60 6
c73 7 130 35 160 79 52 78 3 179 -93 193 -27 4 -30 7 -27 37 1 19 6 38 11 44
4 6 20 46 36 89 23 67 31 78 47 74 31 -8 185 -108 229 -148 35 -33 39 -41 39
-85 -1 -195 -70 -510 -154 -702 -55 -128 -119 -221 -227 -335 -49 -51 -89 -95
-89 -98 0 -29 75 -10 132 33 43 33 105 44 303 53 143 8 183 15 259 50 28 12
85 37 126 54 41 18 82 39 92 48 10 9 27 13 40 10 13 -3 66 -17 118 -31 114
-30 264 -50 380 -50 76 -1 89 -4 126 -29 90 -61 400 -164 553 -183 36 -5 59
-13 70 -27 38 -49 201 -202 251 -236 71 -49 252 -118 345 -133 149 -23 305 23
405 121 64 61 78 108 60 197 -7 37 -9 69 -4 73 5 5 68 23 139 41 126 32 288
80 410 122 82 28 222 99 327 165 l87 54 143 -19 c160 -21 243 -17 382 18 103
27 124 39 184 105 76 83 93 170 58 290 -21 69 -66 118 -141 154 -35 17 -46 26
-41 39 3 9 26 77 51 150 46 131 47 135 46 256 0 126 -12 195 -52 306 -11 30
-26 64 -33 75 -7 11 -27 63 -45 115 -33 96 -139 308 -194 389 -43 62 -233 277
-327 369 -19 19 -80 66 -135 105 -55 39 -103 75 -106 80 -4 5 -10 41 -14 81
-3 39 -13 104 -22 144 -17 84 -113 314 -169 405 -50 83 -163 235 -202 272 -55
54 -190 111 -230 97z m-1158 -227 c128 -25 315 -73 405 -106 150 -53 371 -161
371 -181 0 -9 -47 -17 -130 -22 -107 -6 -504 -113 -698 -188 -30 -12 -35 -11
-48 7 -42 59 -164 150 -279 208 -135 68 -426 150 -625 176 l-55 7 40 18 c74
32 247 69 382 82 39 3 86 10 105 14 52 13 443 2 532 -15z m-944 -160 c191 -16
510 -131 675 -245 22 -15 61 -47 88 -70 45 -40 58 -60 37 -60 -9 0 -171 -76
-386 -181 -86 -42 -155 -89 -130 -89 4 0 4 -5 1 -11 -5 -7 -15 -5 -30 5 -13 9
-64 25 -113 36 -49 10 -101 24 -116 30 -90 34 -298 78 -409 86 -103 7 -129 -8
-146 -87 -16 -73 -13 -252 5 -360 38 -222 166 -503 298 -654 31 -35 30 -21 10
-148 -12 -76 -14 -136 -9 -238 5 -103 4 -139 -6 -144 -48 -31 -291 -17 -417
22 -57 18 -72 37 -72 93 0 16 -16 79 -37 139 l-36 111 16 51 c22 68 21 119 -4
198 -29 94 -40 113 -77 134 -35 21 -170 59 -292 83 -41 9 -80 17 -86 19 -22 7
59 293 87 311 5 3 9 14 9 24 0 10 6 25 13 32 13 15 24 31 63 98 157 263 311
460 439 561 35 27 65 53 67 57 5 12 225 161 255 174 59 23 130 37 178 33 28
-2 84 -7 125 -10z m1882 -200 c178 -129 556 -513 646 -655 9 -14 19 -27 23
-30 19 -15 82 -169 105 -256 22 -85 25 -114 21 -204 -6 -147 -32 -215 -113
-297 -34 -35 -68 -63 -76 -63 -7 0 -58 82 -112 183 -55 100 -123 216 -151 257
-29 41 -74 107 -101 146 -62 89 -130 167 -274 313 -190 193 -434 406 -537 469
-51 30 -52 31 -74 13 l-22 -18 84 -63 c308 -233 474 -381 613 -543 25 -30 63
-72 82 -93 20 -21 48 -56 62 -78 14 -23 49 -72 78 -111 71 -95 157 -234 199
-323 19 -40 46 -96 60 -124 14 -28 25 -55 25 -60 0 -20 -176 -90 -288 -114
-37 -7 -123 -17 -192 -20 -175 -9 -293 14 -527 102 -423 158 -737 415 -897
733 -43 86 -87 230 -93 302 l-5 66 123 68 c224 124 264 144 355 175 49 17 121
44 159 60 39 16 115 43 170 60 55 17 141 45 191 61 78 25 166 47 314 79 71 15
89 11 152 -35z m-2783 -164 c14 -9 16 -6 -87 -150 -126 -177 -239 -371 -284
-488 -9 -24 -20 -43 -25 -43 -16 0 -55 133 -63 215 -13 134 22 271 88 341 34
36 108 89 149 106 15 6 66 14 113 18 47 4 87 7 90 8 3 1 11 -2 19 -7z m-604
-966 c55 -4 116 -10 135 -15 19 -5 60 -13 90 -19 285 -55 344 -73 366 -107 19
-28 12 -82 -14 -113 l-17 -21 -90 35 c-49 19 -97 34 -106 35 -9 0 -36 7 -60
16 -91 32 -347 92 -424 99 -107 9 -116 18 -68 67 29 30 43 37 63 34 14 -3 70
-8 125 -11z m-68 -159 c21 -8 85 -29 143 -46 58 -18 123 -38 145 -45 22 -7 72
-23 110 -34 39 -12 111 -37 160 -56 l90 -35 32 -82 c44 -115 71 -214 76 -276
5 -60 -4 -72 -27 -38 -19 30 -130 110 -180 131 -20 8 -36 18 -36 21 0 18 32
62 49 67 24 6 86 123 70 133 -16 10 -84 -63 -129 -138 -39 -64 -42 -67 -65
-56 -14 6 -25 15 -25 19 0 13 -177 95 -290 133 -58 20 -139 42 -180 49 -69 11
-75 14 -78 37 -6 49 -35 126 -64 168 -21 30 -25 43 -16 46 7 3 20 7 28 9 32
11 151 6 187 -7z m-245 -71 c65 -119 57 -224 -21 -297 -101 -96 -139 -99 -192
-16 -31 48 -34 59 -32 121 3 83 22 126 77 174 43 37 114 75 131 70 6 -2 22
-25 37 -52z m-283 -319 c25 -57 83 -119 119 -128 34 -9 80 13 147 69 43 36 78
76 93 106 28 54 29 54 140 31 121 -25 314 -96 439 -162 l42 -22 -38 -94 c-21
-51 -44 -111 -51 -132 -7 -22 -18 -52 -25 -69 -8 -16 -23 -52 -35 -80 -32 -73
-143 -397 -196 -570 -25 -82 -47 -156 -49 -163 -4 -9 -17 -6 -52 11 -27 14
-113 41 -193 62 -356 92 -458 114 -560 121 -83 6 -93 5 -83 -8 7 -8 44 -21 82
-28 95 -18 97 -19 72 -67 -44 -87 -101 -133 -163 -133 -70 0 -148 70 -148 132
0 33 25 88 40 88 6 0 10 5 10 10 0 6 -7 10 -15 10 -16 0 -21 25 -6 34 5 3 21
59 36 123 63 282 200 677 310 893 36 71 38 74 47 50 6 -14 22 -51 37 -84z
m-261 -169 c5 -26 -59 -177 -75 -177 -23 0 -53 62 -53 110 0 25 4 50 8 56 25
37 114 45 120 11z m1680 -126 c20 -11 286 -48 396 -55 44 -3 83 -11 87 -17 4
-6 10 -39 13 -73 9 -79 61 -302 88 -375 40 -108 155 -301 239 -403 21 -26 39
-49 39 -52 0 -25 -404 66 -585 131 -86 32 -319 163 -376 212 l-41 37 21 67
c23 75 44 193 61 342 7 55 13 109 15 120 2 11 4 32 4 48 1 28 11 33 39 18z
m-434 -143 c26 -23 30 -38 28 -95 -2 -27 -9 -36 -42 -53 -39 -20 -104 -27
-114 -12 -4 6 25 105 49 170 7 20 52 14 79 -10z m4717 -259 c68 -48 86 -73 95
-128 5 -33 4 -41 -8 -41 -9 0 -22 7 -29 17 -17 20 -90 54 -101 47 -5 -3 12
-31 36 -62 66 -86 69 -93 43 -130 -36 -51 -49 -49 -114 18 -87 88 -113 77 -48
-20 49 -72 46 -86 -17 -105 -66 -19 -126 -19 -219 1 -88 18 -121 33 -117 51 2
7 57 57 122 111 101 82 129 111 180 189 74 111 87 115 177 52z m-5649 -423
c54 -12 102 -26 107 -31 5 -6 11 -51 13 -102 3 -78 6 -95 26 -115 12 -14 22
-27 22 -30 0 -3 -44 7 -97 24 -327 98 -318 93 -269 148 19 21 43 59 55 84 11
25 26 46 33 45 7 0 57 -10 110 -23z m280 -61 c40 -9 99 -23 131 -32 52 -14 57
-18 57 -43 0 -38 -33 -76 -93 -106 -68 -35 -126 -30 -171 15 -28 28 -31 38
-34 106 -5 87 -10 85 110 60z m1168 -25 c0 -5 -4 -10 -10 -10 -5 0 -10 5 -10
10 0 6 5 10 10 10 6 0 10 -4 10 -10z m-53 -31 c2 -8 -29 -36 -67 -62 -39 -27
-70 -43 -70 -36 0 15 112 120 125 116 5 -2 11 -10 12 -18z m2557 -371 c35 -41
49 -99 27 -112 -4 -3 -30 15 -57 39 -44 40 -74 56 -74 39 0 -3 16 -33 35 -65
19 -33 35 -68 35 -78 0 -17 -84 -66 -99 -57 -4 3 -16 22 -25 43 -20 42 -80 98
-95 89 -6 -4 3 -34 20 -71 16 -35 29 -69 29 -75 0 -15 -166 -13 -227 3 -120
31 -333 193 -333 253 l0 27 93 -9 c114 -11 381 -9 502 4 50 5 100 10 112 11
14 1 34 -14 57 -41z"/>
<path d="M1877 4099 c-33 -19 -60 -87 -52 -135 7 -50 25 -64 79 -64 41 0 90
43 99 87 14 76 -65 147 -126 112z"/>
<path d="M2412 3994 c-26 -18 -52 -65 -52 -94 0 -34 28 -78 60 -95 49 -25 88
-19 126 19 28 28 34 42 34 76 0 34 -6 48 -34 76 -27 27 -42 34 -73 34 -21 0
-49 -7 -61 -16z"/>
<path d="M1980 3760 c0 -75 59 -124 150 -125 71 0 126 27 148 71 12 27 13 39
4 59 -15 32 -36 32 -59 -2 -32 -47 -75 -83 -98 -83 -33 0 -88 41 -104 78 -18
41 -41 42 -41 2z"/>
<path d="M2193 3488 c-11 -14 -51 -118 -60 -156 -10 -42 24 -65 177 -119 155
-56 178 -60 194 -37 8 10 18 35 21 54 4 19 13 46 20 60 7 14 16 42 20 62 7 35
5 38 -32 56 -21 11 -41 20 -46 20 -4 0 -20 3 -35 6 -15 4 -36 8 -47 11 -11 2
-51 14 -90 25 -102 32 -110 33 -122 18z m125 -31 c6 0 12 -4 12 -7 0 -4 18
-10 39 -14 43 -7 57 -19 44 -38 -4 -7 -8 -19 -9 -26 -2 -8 -5 -16 -8 -19 -8
-8 -27 7 -21 17 6 10 -46 40 -69 40 -10 0 -13 -6 -9 -15 3 -9 13 -15 22 -13
25 4 41 -11 41 -38 0 -14 6 -24 14 -24 22 0 28 -16 13 -32 -7 -7 -16 -20 -19
-29 -5 -13 -2 -16 12 -12 10 3 21 18 25 36 13 61 17 82 19 95 5 29 24 36 65
24 21 -7 41 -18 44 -26 9 -22 -32 -130 -56 -149 -12 -10 -16 -16 -9 -12 6 3
12 1 12 -4 0 -17 -40 -13 -86 8 -23 10 -56 22 -74 26 -20 4 -34 15 -37 26 -6
21 -14 24 -29 9 -12 -12 -94 19 -94 35 0 25 38 106 60 129 19 19 32 23 55 19
17 -4 36 -6 43 -6z"/>
<path d="M2233 3400 c-18 -16 -33 -34 -33 -39 0 -5 16 -15 35 -21 19 -6 35
-15 35 -19 0 -5 13 -8 30 -7 l30 1 -23 17 c-12 10 -32 18 -44 18 -33 0 -37 17
-8 42 24 21 32 38 18 38 -5 0 -23 -14 -40 -30z"/>
<path d="M2455 3322 c-10 -26 -23 -53 -28 -60 -8 -10 -7 -16 3 -22 11 -7 18 4
31 44 8 29 19 58 23 64 3 6 2 13 -3 16 -4 3 -16 -16 -26 -42z"/>
<path d="M7402 4617 c-14 -17 -21 -258 -8 -254 6 2 23 27 38 56 31 59 36 113
14 165 -17 40 -30 50 -44 33z"/>
<path d="M7493 4277 c-24 -5 -43 -14 -43 -18 0 -16 41 -30 78 -27 32 3 37 6
37 28 0 29 -13 32 -72 17z"/>
<path d="M7256 4251 c-24 -26 -182 -108 -245 -127 -57 -17 -79 -37 -62 -58 14
-17 99 -4 156 26 22 11 65 33 95 48 64 33 122 86 118 109 -5 24 -42 25 -62 2z"/>
<path d="M4930 3725 c-26 -32 9 -93 80 -138 38 -24 162 -34 178 -14 11 13 3
19 -52 45 -36 17 -87 51 -114 76 -52 48 -72 55 -92 31z"/>
<path d="M6019 3671 c-68 -53 -371 -167 -499 -187 -47 -8 -66 -32 -46 -59 11
-15 22 -17 63 -11 124 16 479 164 533 221 41 43 -3 74 -51 36z"/>
<path d="M6811 3538 c-30 -27 -39 -30 -77 -24 -51 7 -60 -11 -19 -38 l24 -16
-22 -41 c-23 -43 -101 -124 -140 -146 -26 -14 -96 -17 -116 -4 -8 5 -18 35
-22 67 -9 66 -26 84 -52 53 -61 -74 -6 -188 100 -205 85 -13 209 79 278 208
l23 43 89 0 c69 0 95 4 116 18 30 20 50 59 45 91 -4 29 -39 27 -55 -3 -16 -32
-58 -54 -105 -54 -47 0 -53 5 -38 33 22 41 7 51 -29 18z"/>
<path d="M4956 3525 c-17 -17 -11 -48 12 -68 44 -37 164 -49 228 -22 47 19 37
32 -26 32 -36 1 -72 11 -125 36 -65 31 -77 34 -89 22z"/>
<path d="M5145 3335 c-33 -8 -65 -14 -72 -14 -17 -1 -9 -32 12 -43 26 -15 85
6 120 42 32 34 28 35 -60 15z"/>
<path d="M5165 3153 c-139 -57 -294 -212 -244 -244 23 -14 30 -11 63 27 70 80
140 146 191 181 78 51 73 69 -10 36z"/>
<path d="M5224 3054 c-40 -46 -86 -119 -105 -163 -20 -49 5 -77 38 -44 11 11
29 49 42 87 12 37 36 87 52 111 16 23 29 46 29 49 0 17 -22 1 -56 -40z"/>
</g>
</svg>
