<?xml version="1.0" standalone="no"?>
<!DOCTYPE svg PUBLIC "-//W3C//DTD SVG 20010904//EN"
 "http://www.w3.org/TR/2001/REC-SVG-20010904/DTD/svg10.dtd">
<svg version="1.0" xmlns="http://www.w3.org/2000/svg"
 width="370.000000pt" height="476.000000pt" viewBox="0 0 370.000000 476.000000"
 preserveAspectRatio="xMidYMid meet">

<g transform="translate(0.000000,476.000000) scale(0.100000,-0.100000)"
fill="#000000" stroke="none">
<path d="M2125 4728 c-2 -7 -14 -70 -28 -139 -27 -139 -52 -199 -110 -265 -44
-50 -64 -57 -222 -74 -133 -14 -341 -66 -450 -112 -81 -35 -184 -96 -330 -196
l-80 -54 -307 5 c-188 4 -310 2 -313 -4 -9 -13 81 -270 123 -354 54 -109 96
-169 177 -253 l74 -79 -5 -114 c-7 -124 8 -253 52 -454 52 -238 103 -358 200
-472 25 -29 44 -53 41 -53 -2 0 -25 9 -50 20 -25 11 -116 40 -202 65 -144 41
-162 49 -206 89 -86 77 -153 95 -216 56 -37 -22 -48 -54 -39 -105 6 -32 5 -35
-17 -35 -13 0 -51 -9 -85 -21 -105 -36 -148 -110 -107 -188 17 -35 95 -75 130
-68 19 3 25 0 25 -13 0 -56 93 -104 156 -81 l35 13 137 -134 c146 -142 248
-228 350 -297 51 -34 61 -46 58 -64 -30 -143 -40 -186 -52 -209 -8 -15 -55
-55 -105 -89 -233 -156 -365 -364 -427 -671 -17 -82 -19 -85 -37 -72 -10 8
-39 14 -63 14 -40 0 -50 -5 -92 -47 -31 -32 -55 -68 -69 -108 -27 -71 -39
-165 -22 -165 6 0 11 13 11 28 0 50 30 146 62 195 35 54 71 77 122 77 56 0 68
-28 59 -131 -9 -97 -6 -169 8 -169 5 0 9 33 9 74 0 195 72 504 148 636 70 121
190 246 324 337 43 29 84 65 91 80 14 28 39 123 51 195 l7 37 92 -44 c51 -24
124 -50 162 -58 64 -12 72 -17 90 -49 31 -54 72 -104 80 -96 4 4 -6 24 -23 46
-17 21 -34 50 -37 64 -6 25 -5 26 41 24 30 -1 49 4 51 12 4 9 -16 12 -79 12
-113 0 -181 19 -323 90 -156 77 -258 155 -455 347 l-160 156 -43 -13 c-71 -19
-139 19 -134 75 2 17 -5 20 -45 22 -83 3 -128 39 -128 103 0 45 24 75 80 99
86 37 137 42 200 21 60 -21 125 -26 115 -10 -3 6 -16 10 -28 10 -74 0 -147 48
-147 95 0 38 42 75 85 75 46 0 86 -21 145 -76 44 -41 59 -48 176 -80 232 -63
313 -99 571 -256 185 -111 224 -140 325 -247 53 -56 99 -97 102 -92 4 5 -42
59 -101 120 -60 61 -101 109 -93 105 131 -57 232 -74 485 -83 223 -8 500 -5
575 7 38 6 50 4 80 -16 29 -20 44 -23 89 -19 45 3 59 9 83 35 15 18 30 49 34
70 4 26 24 59 70 112 35 41 87 118 116 170 29 52 76 122 106 155 47 52 57 59
85 56 63 -6 166 -72 192 -120 18 -36 40 -137 60 -276 11 -81 20 -113 32 -120
44 -26 73 -64 73 -96 0 -35 -20 -99 -30 -99 -4 0 -26 37 -50 83 -49 94 -116
197 -192 293 -84 107 -67 56 21 -63 253 -340 381 -757 381 -1238 0 -236 -29
-433 -95 -642 -5 -14 -3 -23 3 -23 23 0 85 254 101 419 14 131 14 349 1 482
-21 206 -95 520 -147 623 -13 26 -13 33 7 79 30 69 24 131 -18 168 -16 15 -34
28 -39 30 -6 2 -22 78 -37 169 -29 173 -48 231 -87 267 -30 27 -103 67 -151
82 l-37 12 34 52 c42 64 100 205 121 295 47 202 -14 519 -138 724 -152 250
-334 449 -590 644 -73 55 -98 81 -98 97 0 39 -40 170 -72 232 -52 104 -140
228 -211 298 -71 68 -85 77 -92 55z m89 -81 c65 -64 178 -233 217 -325 15 -37
38 -122 51 -189 12 -68 26 -123 31 -123 5 0 7 16 4 35 -3 19 -3 35 -1 35 14 0
167 -124 267 -215 135 -124 192 -188 298 -337 105 -147 173 -285 205 -416 28
-115 25 -126 -29 -140 -45 -12 -49 -36 -6 -30 19 3 42 8 52 13 16 7 17 -2 17
-106 0 -121 -20 -231 -46 -260 -9 -10 -61 -32 -117 -49 -56 -18 -106 -33 -112
-35 -24 -8 124 -4 160 5 22 5 41 7 43 5 5 -5 -45 -100 -60 -112 -7 -6 -29 -13
-48 -15 -40 -3 -49 -31 -12 -36 12 -2 22 -8 22 -13 0 -16 -162 -173 -230 -223
-130 -96 -295 -165 -545 -229 -402 -103 -705 -107 -974 -13 -125 44 -346 174
-436 257 -58 54 -137 171 -165 246 -30 80 -74 254 -101 398 -22 118 -33 384
-17 401 4 3 25 -9 47 -27 49 -42 149 -95 159 -84 4 4 2 10 -5 12 -78 28 -283
202 -358 305 -60 81 -126 215 -174 351 -46 132 -51 163 -24 152 10 -5 146 -10
303 -12 l285 -4 130 86 c72 47 164 103 205 124 150 78 344 132 551 151 127 12
151 22 207 85 57 64 81 122 110 263 14 67 29 122 33 122 5 0 33 -24 63 -53z
m537 -2746 c37 -37 41 -104 8 -145 -26 -33 -39 -26 -32 19 7 40 -17 85 -46 85
-17 0 -17 -2 0 -52 26 -75 25 -88 -10 -88 -44 0 -94 40 -105 83 -12 48 13 85
75 109 61 24 76 22 110 -11z"/>
<path d="M3085 3175 c17 -44 17 -69 0 -102 -22 -40 -11 -57 15 -23 28 35 26
101 -2 126 -21 19 -21 19 -13 -1z"/>
<path d="M3197 3068 c-20 -40 -33 -76 -30 -81 7 -12 33 12 47 47 14 34 29 106
22 106 -2 0 -20 -32 -39 -72z"/>
<path d="M2968 2872 c-126 -83 -320 -241 -311 -254 2 -5 15 -1 28 9 219 169
310 236 358 268 51 34 70 55 50 55 -5 0 -61 -35 -125 -78z"/>
<path d="M1070 2583 c0 -45 43 -72 77 -48 17 13 17 14 -2 21 -11 4 -32 18 -47
32 l-28 26 0 -31z"/>
<path d="M990 2505 c0 -2 5 -15 11 -28 14 -30 48 -47 95 -47 50 0 43 31 -9 42
-21 4 -48 15 -60 23 -21 15 -37 19 -37 10z"/>
<path d="M2025 2433 c-160 -8 -635 -112 -635 -139 0 -8 1 -14 3 -14 1 0 63 14
137 31 222 50 558 109 620 109 6 0 10 5 10 10 0 6 -17 9 -37 8 -21 -1 -65 -3
-98 -5z"/>
<path d="M2533 2392 c-3 -14 -11 -18 -29 -14 -29 5 -33 -13 -4 -21 27 -7 26
-48 -2 -74 -36 -33 -64 -43 -97 -37 -18 4 -31 2 -31 -4 0 -14 60 -21 90 -10
14 5 34 17 45 27 19 17 113 51 139 51 20 0 94 69 75 70 -9 0 -24 -9 -34 -20
-10 -11 -36 -25 -57 -32 -33 -10 -41 -9 -59 8 -15 13 -19 26 -15 46 6 31 -13
40 -21 10z"/>
<path d="M1030 2343 c0 -28 75 -44 98 -21 24 24 12 34 -43 34 -37 0 -55 -4
-55 -13z"/>
<path d="M1555 2149 c-22 -6 -76 -19 -119 -30 -49 -13 -92 -18 -113 -14 -25 4
-35 2 -39 -10 -16 -40 62 -54 150 -28 56 16 166 73 166 85 0 5 -1 8 -2 7 -2
-1 -21 -5 -43 -10z"/>
<path d="M1670 1993 c-138 -36 -168 -41 -210 -36 -30 4 -38 2 -44 -13 -8 -21
15 -43 48 -46 12 0 28 -2 36 -3 43 -4 138 29 201 70 38 24 69 47 69 50 0 3 -1
5 -2 4 -2 0 -46 -12 -98 -26z"/>
</g>
</svg>
