<?xml version="1.0" standalone="no"?>
<!DOCTYPE svg PUBLIC "-//W3C//DTD SVG 20010904//EN"
 "http://www.w3.org/TR/2001/REC-SVG-20010904/DTD/svg10.dtd">
<svg version="1.0" xmlns="http://www.w3.org/2000/svg"
 width="640.000000pt" height="640.000000pt" viewBox="0 0 640.000000 640.000000"
 preserveAspectRatio="xMidYMid meet">

<g transform="translate(0.000000,640.000000) scale(0.100000,-0.100000)"
fill="#000000" stroke="none">
<path d="M1707 5102 c69 -67 160 -117 262 -143 l66 -17 -95 -1 -95 -1 42 -35
c22 -19 58 -60 78 -90 l37 -56 186 1 c165 2 187 0 186 -14 0 -9 -1 -55 -2
-102 l-2 -85 -120 3 c-66 2 -120 2 -120 0 0 -2 13 -14 28 -27 16 -13 41 -42
57 -64 27 -40 29 -41 88 -41 l59 0 -6 -102 c-3 -57 -9 -163 -12 -235 l-7 -133
-26 0 c-32 0 -44 -8 -60 -38 -21 -40 10 -92 55 -92 30 0 29 39 4 -450 -11
-212 -20 -415 -20 -452 l0 -68 130 0 130 0 0 485 0 485 33 0 c41 0 67 26 67
67 0 38 -27 63 -68 63 l-32 0 0 235 0 235 650 0 650 0 0 -235 0 -235 -33 0
c-41 0 -67 -26 -67 -67 0 -38 27 -63 68 -63 l32 0 0 -485 0 -485 130 0 130 0
0 68 c0 37 -9 240 -20 452 -25 489 -26 450 4 450 28 0 51 20 61 51 10 31 -25
73 -62 77 l-30 3 -7 132 c-3 73 -9 178 -12 235 l-6 102 59 0 c59 0 61 1 88 41
16 22 41 51 57 64 15 13 28 25 28 27 0 2 -54 2 -120 0 l-120 -3 -2 85 c-1 47
-2 93 -2 102 -1 14 21 16 186 14 l186 -1 37 56 c20 30 56 71 78 90 l42 35 -95
1 -95 1 73 19 c96 24 183 71 254 138 32 29 57 55 56 57 -2 1 -78 -12 -168 -30
-432 -87 -856 -126 -1380 -126 -567 0 -1075 52 -1530 156 -20 4 -13 -6 37 -54z
m1423 -437 l0 -105 -290 0 -290 0 0 100 0 100 288 3 c158 1 288 3 290 5 1 1 2
-45 2 -103z m720 -5 l0 -100 -290 0 -290 0 0 103 0 102 290 -3 290 -3 0 -99z"/>
<path d="M1452 2366 c-5 -6 -47 -103 -93 -215 -63 -154 -89 -206 -106 -214
-41 -19 -24 -27 55 -27 70 1 75 2 58 15 -11 8 -26 15 -34 15 -8 0 -12 6 -9 13
3 6 15 36 27 65 l23 52 82 0 82 0 26 -62 c15 -34 26 -62 24 -63 -1 0 -15 -7
-32 -15 l-30 -15 53 -3 c28 -2 76 -2 105 0 51 3 51 3 25 17 -21 11 -42 51
-114 226 -75 179 -93 214 -111 218 -13 2 -27 -1 -31 -7z m37 -179 c17 -43 31
-79 31 -80 0 -1 -29 -2 -65 -2 -36 0 -65 2 -65 5 0 9 63 161 65 158 2 -2 17
-38 34 -81z"/>
<path d="M2822 2371 c-19 -5 -38 -42 -110 -212 -57 -136 -96 -214 -112 -228
l-25 -20 80 0 c72 0 78 1 61 14 -11 8 -26 15 -33 15 -16 0 -17 -6 12 65 l24
60 84 3 85 3 25 -63 25 -63 -32 -15 -31 -15 53 -3 c28 -2 76 -2 105 0 51 3 51
3 25 17 -21 11 -42 51 -113 225 -49 116 -91 214 -94 217 -3 3 -16 3 -29 0z
m17 -184 c17 -43 31 -79 31 -80 0 -5 -130 -3 -130 3 0 9 62 161 65 158 2 -2
17 -38 34 -81z"/>
<path d="M4793 2360 c-79 -35 -108 -129 -59 -188 14 -16 53 -44 88 -62 87 -46
98 -57 98 -101 0 -47 -27 -69 -86 -69 -49 0 -94 31 -114 80 -7 16 -17 30 -23
30 -14 0 0 -112 16 -122 25 -16 119 -29 157 -23 119 20 178 146 102 217 -15
15 -54 41 -87 58 -33 18 -68 41 -77 52 -38 44 -7 108 53 108 44 0 66 -15 99
-68 l30 -47 0 62 0 62 -52 16 c-67 20 -94 19 -145 -5z"/>
<path d="M790 2365 c0 -2 14 -11 30 -20 l30 -16 0 -222 c0 -243 -2 -253 -55
-259 -25 -2 -30 -8 -30 -28 0 -44 40 -39 88 12 68 71 79 115 85 326 3 132 7
182 16 182 7 0 21 7 32 15 17 13 8 14 -88 15 -60 0 -108 -2 -108 -5z"/>
<path d="M1960 2366 c0 -3 14 -12 30 -21 l30 -16 0 -190 0 -191 -30 -11 c-16
-6 -30 -15 -30 -19 0 -4 47 -8 105 -8 58 0 105 2 105 6 0 3 -16 12 -35 20
l-36 15 3 81 3 80 65 4 c86 5 148 36 174 88 17 36 18 43 5 80 -24 69 -57 80
-236 84 -84 2 -153 1 -153 -2z m274 -58 c15 -13 29 -37 32 -54 5 -26 0 -38
-23 -64 -25 -28 -38 -34 -86 -38 l-57 -4 0 91 0 91 54 0 c43 0 61 -5 80 -22z"/>
<path d="M3328 2350 l32 -20 0 -190 0 -189 -32 -18 -33 -18 53 -3 c29 -2 74
-2 100 0 l47 3 -30 13 c-16 7 -36 15 -42 17 -10 3 -13 43 -13 155 0 82 1 150
3 150 2 0 68 -76 148 -170 98 -116 150 -170 164 -170 20 0 20 5 17 210 l-3
209 33 18 33 18 -47 3 c-68 4 -146 -2 -128 -10 8 -4 27 -12 43 -17 l27 -11 0
-135 c0 -74 -3 -135 -7 -134 -5 0 -66 70 -137 155 l-129 154 -66 0 -66 0 33
-20z"/>
<path d="M4050 2365 c0 -2 14 -11 30 -20 l30 -16 0 -190 0 -191 -30 -11 c-16
-6 -30 -15 -30 -19 0 -4 86 -8 190 -8 l190 0 -1 73 0 72 -27 -52 -26 -53 -93
0 -93 0 0 90 0 90 59 0 c56 0 61 -2 78 -30 9 -16 21 -30 25 -30 4 0 7 36 6 80
0 44 -3 80 -7 80 -4 0 -15 -13 -24 -30 -17 -28 -22 -30 -78 -30 l-59 0 0 80 0
80 83 0 83 0 23 -40 c12 -22 24 -40 27 -40 2 0 4 27 4 60 l0 60 -180 0 c-99 0
-180 -2 -180 -5z"/>
<path d="M5250 2364 c0 -3 14 -10 30 -15 l30 -11 0 -194 0 -193 -32 -18 c-33
-18 -31 -18 161 -21 107 -1 196 -1 198 2 2 2 3 35 1 72 l-3 69 -28 -52 -27
-53 -90 0 -90 0 0 90 0 90 58 0 c54 0 58 -2 77 -33 l20 -32 3 43 c2 23 2 61 0
85 l-3 42 -20 -32 c-18 -31 -23 -33 -77 -33 l-58 0 0 80 0 80 84 0 c83 0 84 0
96 -30 7 -16 18 -35 26 -41 12 -10 14 -1 14 50 l0 61 -185 0 c-102 0 -185 -2
-185 -6z"/>
<path d="M1660 1469 c0 -44 5 -45 24 -7 8 16 22 24 44 26 l32 3 0 -114 c0
-108 -1 -114 -22 -125 -19 -9 -12 -11 42 -11 64 0 64 0 37 15 l-28 15 3 107 3
107 33 3 c29 3 34 0 43 -27 15 -42 24 -39 23 6 l-1 38 -117 3 -116 3 0 -42z"/>
<path d="M2111 1492 c-120 -65 -74 -252 62 -252 104 0 164 96 123 195 -29 67
-116 94 -185 57z m119 -29 c33 -30 48 -88 36 -138 -24 -94 -148 -84 -177 15
-34 112 61 194 141 123z"/>
<path d="M2470 1502 c0 -5 7 -12 15 -16 12 -4 15 -26 15 -112 0 -90 -3 -109
-17 -120 -16 -12 -12 -13 31 -14 47 0 48 1 33 18 -10 11 -17 36 -17 60 0 37 3
42 23 42 16 0 32 -16 59 -60 33 -54 41 -60 70 -60 25 1 29 3 17 10 -9 5 -33
34 -53 63 l-38 54 26 26 c31 31 33 67 6 92 -23 21 -170 36 -170 17z m138 -35
c22 -17 10 -60 -21 -75 -42 -20 -57 -10 -57 41 0 24 3 47 6 50 9 8 54 -2 72
-16z"/>
<path d="M2848 1493 c20 -14 22 -23 22 -123 0 -101 -1 -108 -22 -118 -20 -9
-15 -11 32 -11 48 0 53 1 38 13 -15 11 -18 30 -18 125 0 92 3 111 15 111 8 0
15 5 15 10 0 6 -24 10 -52 9 -51 0 -52 -1 -30 -16z"/>
<path d="M3103 1496 c14 -11 17 -30 17 -124 0 -95 -2 -112 -17 -121 -14 -8 -5
-10 37 -10 48 0 53 1 38 13 -15 11 -18 30 -18 121 0 91 3 110 18 121 15 12 10
13 -38 13 -48 0 -53 -1 -37 -13z"/>
<path d="M3422 1490 c-78 -48 -95 -151 -34 -213 25 -24 41 -31 84 -34 71 -5
102 12 106 57 2 19 11 40 20 47 14 10 9 12 -36 13 -33 0 -51 -4 -47 -10 3 -5
13 -10 21 -10 11 0 14 -9 12 -37 -3 -37 -4 -38 -46 -41 -38 -3 -47 1 -77 31
-31 31 -35 41 -35 87 0 44 4 56 29 81 42 41 92 40 132 -2 l29 -31 0 31 c0 25
-6 34 -26 41 -41 16 -96 12 -132 -10z"/>
<path d="M3826 1393 c-27 -65 -57 -126 -68 -135 -20 -17 -19 -18 28 -18 43 1
47 2 31 14 -16 12 -16 16 -2 50 14 34 18 36 60 36 42 0 47 -3 62 -36 17 -34
17 -36 -2 -50 -17 -13 -14 -14 36 -14 47 1 52 2 36 14 -10 8 -39 67 -65 132
-26 65 -52 119 -58 121 -5 2 -32 -50 -58 -114z m75 7 l18 -40 -41 0 c-34 0
-39 3 -33 18 4 9 12 30 17 45 12 33 15 31 39 -23z"/>
<path d="M4150 1470 c0 -47 4 -49 23 -13 10 19 23 27 46 29 l31 2 0 -112 c0
-107 -1 -113 -22 -124 -19 -9 -12 -11 42 -11 54 0 61 2 43 11 -22 11 -23 17
-23 124 l0 113 31 -1 c23 -1 34 -8 45 -30 19 -38 24 -35 24 12 l0 40 -120 0
-120 0 0 -40z"/>
<path d="M4544 1495 c16 -12 18 -27 17 -122 -1 -87 -5 -110 -18 -120 -14 -11
2 -13 90 -13 l107 0 0 35 c0 41 -7 45 -20 10 -9 -23 -15 -25 -65 -25 l-55 0 0
55 0 55 35 0 c22 0 38 -6 41 -15 11 -28 23 -15 22 25 0 40 -11 53 -22 25 -3
-9 -19 -15 -41 -15 l-35 0 0 49 0 48 50 -1 c28 0 50 -3 50 -6 0 -4 7 -15 15
-26 13 -18 14 -17 15 19 l0 37 -102 0 c-91 -1 -101 -2 -84 -15z"/>
</g>
</svg>
